<?xml version="1.0" encoding="UTF-8"?>
<svg id="Layer_2" data-name="Layer 2" xmlns="http://www.w3.org/2000/svg" viewBox="0 0 670.37 676.32">
  <defs>
    <style>
      .cls-1, .cls-2, .cls-3 {
        stroke-width: 0px;
      }

      .cls-2 {
        fill: #74caff;
      }

      .cls-3 {
        fill: #ffe100;
      }
    </style>
  </defs>
  <g id="Layer_1-2" data-name="Layer 1">
    <g>
      <g>
        <polygon class="cls-1" points="440.87 435.49 440.53 441.38 438.06 444.67 439.22 445.54 441.69 442.25 447.25 440.28 445.96 439.31 441.92 440.74 442.2 436.49 440.87 435.49"/>
        <path class="cls-1" d="M435.32,442.62l2.62-9.33-1.31-.98-8.25,5.1,1.23.92,2.21-1.38,3,2.25-.71,2.5,1.21.91ZM433.11,436.15l3.13-1.96-1.01,3.55-2.12-1.59Z"/>
        <path class="cls-1" d="M405.39,420.15l1.23.92,2.21-1.38,3,2.25-.71,2.5,1.21.91,2.62-9.33-1.31-.98-8.25,5.1ZM412.24,420.49l-2.12-1.59,3.13-1.96-1.01,3.55Z"/>
        <path class="cls-1" d="M400.8,408.66c.88-1.17.65-2.75-.76-3.81l-3-2.25-5.42,7.22,1.15.86,2.33-3.11,1.33.99c1.27.95-.46,3.12-.62,4.4l1.3.97c.37-2.19,1.6-3.18,1.09-4.41,1.06.27,1.98-.06,2.59-.88ZM397.79,407.8l-1.83-1.37,1.37-1.82,1.82,1.37c.71.53.89,1.24.49,1.77-.41.55-1.17.58-1.86.06Z"/>
        <path class="cls-1" d="M401.31,417.37c2.06,1.55,4.72,1.05,6.35-1.12,1.6-2.13,1.48-4.85-.66-6.46-2.15-1.61-4.81-1-6.42,1.15-1.63,2.17-1.35,4.88.73,6.43ZM401.81,411.86c1.12-1.5,2.89-1.97,4.31-.91,1.42,1.07,1.45,2.89.32,4.39-1.17,1.56-2.96,1.89-4.29.89-1.33-1-1.51-2.83-.35-4.38Z"/>
        <path class="cls-1" d="M394.3,403.46c.9-1.2.55-2.51-.95-3.64l-2.93-2.2-5.42,7.22,3.02,2.26c1.52,1.14,3.23,1.06,4.18-.21.6-.8.66-1.72.14-2.52.77.1,1.45-.23,1.96-.91ZM391.04,405.98c-.51.68-1.27.65-2.18-.03l-1.84-1.38,1.56-2.08,1.8,1.35c.94.71,1.18,1.46.67,2.15ZM393.08,402.7c-.42.57-1.21.49-2.1-.18l-1.56-1.17,1.29-1.72,1.66,1.25c.84.64,1.11,1.28.7,1.82Z"/>
        <polygon class="cls-1" points="426.3 435.85 433.64 430.07 432.45 429.17 427.57 433.16 429.84 427.21 428.73 426.38 423.64 430.26 426.1 424.41 424.9 423.51 421.4 432.17 422.37 432.9 427.81 428.8 425.35 435.14 426.3 435.85"/>
        <path class="cls-1" d="M421.72,426.7c1.64-2.19,1.49-4.47-.75-6.15l-2.54-1.91-5.42,7.22,2.54,1.91c2.24,1.68,4.55,1.08,6.17-1.08ZM418.72,420.65l1.23.92c1.55,1.16,1.85,2.57.6,4.25-1.25,1.66-2.75,1.85-4.3.69l-1.23-.92,3.71-4.94Z"/>
        <polygon class="cls-1" points="279.58 392.83 281.44 383.42 279.92 383.65 278.66 390.24 275.49 384.32 273.97 384.55 278.57 392.99 279.58 392.83"/>
        <polygon class="cls-1" points="262.39 395.44 262.17 394.02 257.27 394.76 256.9 392.31 261.3 391.64 261.09 390.22 256.68 390.89 256.34 388.67 261.14 387.95 260.93 386.53 254.71 387.48 256.06 396.4 262.39 395.44"/>
        <polygon class="cls-1" points="229.54 391.3 227.74 395.18 224.9 392 223.25 392.25 227.21 396.62 227.83 400.69 229.27 400.47 228.65 396.4 231.14 391.05 229.54 391.3"/>
        <path class="cls-1" d="M238.5,399.07l1.6-.24c-1.3-1.79-1.14-3.37-2.38-3.86.93-.57,1.35-1.46,1.19-2.46-.22-1.45-1.51-2.4-3.25-2.13l-3.7.56,1.35,8.93,1.43-.22-.58-3.85,1.64-.25c1.57-.24,1.9,2.52,2.71,3.52ZM233.94,394.38l-.34-2.26,2.26-.34c.88-.13,1.51.23,1.6.89.1.68-.41,1.24-1.26,1.37l-2.25.34Z"/>
        <polygon class="cls-1" points="288.53 382.34 282.31 383.28 283.67 392.21 289.99 391.25 289.78 389.83 284.88 390.57 284.5 388.12 288.91 387.45 288.69 386.03 284.29 386.7 283.95 384.48 288.75 383.75 288.53 382.34"/>
        <polygon class="cls-1" points="248.87 388.36 247.44 388.58 248.79 397.51 255.01 396.56 254.8 395.14 250.01 395.87 248.87 388.36"/>
        <path class="cls-1" d="M268.67,385.36l-2.13,9.46,1.52-.23.56-2.54,3.7-.56,1.29,2.26,1.5-.23-4.82-8.4-1.61.25ZM268.95,390.56l.8-3.61,1.82,3.21-2.62.4Z"/>
        <polygon class="cls-1" points="220.23 401.85 221.54 396.02 222.37 401.52 223.8 401.3 222.44 392.38 220.91 392.61 219.25 399.97 215.43 393.44 213.9 393.67 215.25 402.6 216.68 402.39 215.84 396.88 218.87 402.05 220.23 401.85"/>
        <polygon class="cls-1" points="246.57 388.71 239.38 389.8 239.59 391.22 242.47 390.78 243.62 398.29 245.04 398.08 243.9 390.56 246.78 390.13 246.57 388.71"/>
        <rect class="cls-1" x="265.48" y="212.79" width="1.47" height="9.03" transform="translate(-70.98 283.57) rotate(-50.34)"/>
        <path class="cls-1" d="M284.76,196.23c1.13-1.36.94-2.98-.22-3.95-1.15-.95-2.74-.85-3.89.53l-2.34,2.82,6.95,5.76.93-1.12-2.84-2.35,1.41-1.7ZM280.33,195.44l1.4-1.69c.56-.68,1.27-.8,1.85-.32.59.49.6,1.25.06,1.9l-1.4,1.69-1.91-1.59Z"/>
        <polygon class="cls-1" points="274.12 200.7 279.06 204.79 271.42 203.95 270.52 205.04 277.47 210.8 278.39 209.68 273.43 205.57 281.1 206.42 281.99 205.35 275.04 199.59 274.12 200.7"/>
        <path class="cls-1" d="M273.26,208.87c-2.05-1.7-4.77-1.71-6.48.35-1.72,2.07-1.23,4.75.83,6.46,2.09,1.73,4.8,1.58,6.46-.42,1.65-1.99,1.28-4.67-.81-6.4ZM272.97,214.35c-1.06,1.29-2.9,1.37-4.39.14-1.44-1.19-1.83-2.98-.7-4.35,1.13-1.37,2.96-1.31,4.4-.11,1.5,1.24,1.74,3.05.69,4.33Z"/>
        <polygon class="cls-1" points="289.99 193.45 284.14 188.6 283.22 189.72 290.17 195.48 294.18 190.64 293.08 189.72 289.99 193.45"/>
        <path class="cls-1" d="M253.13,226.01l4.7,8.48.98-1.18-1.27-2.27,2.39-2.88,2.47.83.97-1.17-9.19-3.06-1.04,1.26ZM258.5,227.66l-1.69,2.04-1.8-3.23,3.5,1.18Z"/>
        <path class="cls-1" d="M263.95,220.57c.32-1.04.04-1.98-.75-2.63-1.13-.93-2.72-.79-3.84.57l-2.39,2.89,6.95,5.76.92-1.11-3-2.48,1.06-1.28c1.01-1.22,3.09.61,4.37.83l1.04-1.25c-2.17-.47-3.1-1.76-4.35-1.3ZM262.19,220.89l-1.46,1.76-1.76-1.46,1.46-1.76c.57-.68,1.28-.83,1.79-.41.53.44.52,1.2-.03,1.86Z"/>
        <path class="cls-1" d="M247.54,49.08c0,3.69,2.36,6.25,5.74,6.25s5.74-2.56,5.74-6.25c0-2.13-.8-3.98-2.73-5.43,1.39-1.02,2.24-2.5,2.24-4.49,0-3.1-2.13-5.37-5.26-5.37s-5.26,2.27-5.26,5.37c0,1.99.88,3.47,2.24,4.49-1.93,1.45-2.73,3.3-2.73,5.43ZM250.13,39.25c0-1.73,1.28-3.01,3.15-3.01s3.15,1.28,3.15,3.01c0,1.85-1.39,3.27-3.15,3.27s-3.15-1.42-3.15-3.27ZM253.28,44.91c2.13,0,3.69,1.73,3.69,4.18s-1.45,3.78-3.69,3.78-3.69-1.45-3.69-3.78,1.56-4.18,3.69-4.18Z"/>
        <rect class="cls-1" x="287.32" y=".63" width="2.1" height="21.37"/>
        <path class="cls-1" d="M299.55,22.54c2.36,0,4.35-1.28,5.46-3.32l.2,2.78h1.82v-11.37h-6.85v2.53h4.8c-.11,3.95-2.33,6.82-5.29,6.82s-5.57-3.1-5.57-8.41c0-5,2.13-8.87,5.83-8.87,2.16,0,3.98,1.34,4.89,4.15l2.02-.57c-1.11-3.81-3.52-6.17-6.9-6.17-5.03,0-7.96,5.2-7.96,11.45s3.1,10.97,7.56,10.97Z"/>
        <path class="cls-1" d="M266.45,47.86c1.36,0,2.87-.51,4.15-2.81-.23,4.26-1.31,7.84-4.09,7.84-1.51,0-2.53-1.02-3.07-2.9l-1.93.54c.74,2.96,2.36,4.8,5.09,4.8,3.86,0,6.02-3.86,6.02-11.14s-2.13-10.49-5.77-10.49-5.74,3.15-5.74,7.22,2.13,6.93,5.34,6.93ZM266.65,36.18c2.16,0,3.64,2.05,3.61,5.46-.37,1.79-1.71,3.67-3.67,3.67-2.1,0-3.38-2.07-3.38-4.6s1.42-4.52,3.44-4.52Z"/>
        <polygon class="cls-1" points="414.54 55 416.61 55 416.61 45.73 423.01 33.63 420.71 33.63 415.59 43.29 410.53 33.63 408.12 33.63 414.54 45.73 414.54 55"/>
        <polygon class="cls-1" points="272.79 12.33 282.11 12.33 282.11 22 284.16 22 284.16 .63 282.11 .63 282.11 9.83 272.79 9.83 272.79 .63 270.75 .63 270.75 22 272.79 22 272.79 12.33"/>
        <path class="cls-1" d="M279.96,52.89c-1.51,0-2.53-1.02-3.07-2.9l-1.93.54c.74,2.96,2.36,4.8,5.09,4.8,3.86,0,6.02-3.86,6.02-11.14s-2.13-10.49-5.77-10.49-5.74,3.15-5.74,7.22,2.13,6.93,5.34,6.93c1.37,0,2.87-.51,4.15-2.81-.23,4.26-1.31,7.84-4.09,7.84ZM280.05,45.3c-2.1,0-3.38-2.07-3.38-4.6s1.42-4.52,3.44-4.52c2.16,0,3.64,2.05,3.61,5.46-.37,1.79-1.71,3.67-3.67,3.67Z"/>
        <path class="cls-1" d="M332.79,55.54c4.89,0,8.35-4.72,8.35-11.14s-3.27-11.28-8.35-11.28-8.41,4.94-8.41,11.28,3.52,11.14,8.41,11.14ZM332.79,35.67c3.78,0,6.17,3.75,6.17,8.7s-2.61,8.64-6.17,8.64-6.17-3.58-6.17-8.64,2.42-8.7,6.17-8.7Z"/>
        <polygon class="cls-1" points="391.62 22 393.69 22 393.69 12.73 400.08 .63 397.78 .63 392.67 10.29 387.61 .63 385.19 .63 391.62 12.73 391.62 22"/>
        <path class="cls-1" d="M369.67,55v-21.48h-2.07v8.13c-1.05-1.56-2.33-2.24-3.67-2.24-3.01,0-5.23,3.47-5.23,8.01s2.08,7.93,5.23,7.93c1.42,0,2.67-.68,3.67-2.33v1.99h2.07ZM364.19,52.81c-2.08,0-3.38-2.42-3.38-5.4s1.34-5.37,3.33-5.37,3.44,2.53,3.44,5.51-1.39,5.26-3.38,5.26Z"/>
        <path class="cls-1" d="M392.16,55h2.22l1.88-6.17h7.53l1.9,6.17h2.19l-6.62-21.37h-2.42l-6.68,21.37ZM402.99,46.33h-5.91l2.98-9.61,2.93,9.61Z"/>
        <path class="cls-1" d="M373.14,12.79h4.52c3.1,0,2.79,6.02,4.12,9.21h2.33c-1.93-4.66-1.19-8.3-3.35-9.89,1.9-.97,2.93-2.93,2.93-5.34,0-3.55-2.19-6.14-5.48-6.14h-7.1v21.37h2.05v-9.21ZM373.14,3.15h5c2.1,0,3.44,1.39,3.44,3.5s-1.39,3.61-3.44,3.61h-5V3.15Z"/>
        <polygon class="cls-1" points="386.38 50.33 382.57 33.63 380.61 33.63 376.81 50.42 373.45 33.63 371.29 33.63 375.84 55 377.71 55 381.64 38.06 385.44 55 387.29 55 391.84 33.63 389.68 33.63 386.38 50.33"/>
        <path class="cls-1" d="M331.75,16.54c0,3.52,2.22,5.88,5.37,5.88,2.05,0,3.75-1.02,5.34-2.93.71.74,1.39,1.45,2.27,2.27l1.65-1.31c-1.11-1.05-1.96-1.88-2.76-2.73.91-1.9,1.45-4.29,1.56-7.25h-1.88c-.06,2.36-.45,4.12-1.19,5.54-1.62-1.79-3.1-3.81-4.06-5.46,2.36-2.1,3.61-3.89,3.61-6.05,0-2.61-1.73-4.52-4.01-4.52s-3.95,1.93-3.95,4.55c0,1.53.54,3.27,1.71,5.48-2.5,2.24-3.67,3.98-3.67,6.51ZM337.68,2.36c1.22,0,2.05.88,2.05,2.16,0,1.39-.99,2.76-2.79,4.18-.82-1.48-1.28-2.87-1.28-3.98,0-1.42.77-2.36,2.02-2.36ZM336.49,11.94c1.51,2.3,2.96,4.23,4.4,5.85-1.14,1.45-2.44,2.19-3.84,2.19-2.02,0-3.44-1.48-3.44-3.38,0-1.53.94-2.96,2.87-4.66Z"/>
        <polygon class="cls-1" points="311.84 12.33 321.16 12.33 321.16 22 323.21 22 323.21 .63 321.16 .63 321.16 9.83 311.84 9.83 311.84 .63 309.79 .63 309.79 22 311.84 22 311.84 12.33"/>
        <path class="cls-1" d="M368.71,11.2c0-6.48-2.81-10.57-8.13-10.57h-6.02v21.37h6.02c5.31,0,8.13-4.43,8.13-10.8ZM356.6,19.47V3.15h3.61c4.09,0,6.39,2.5,6.39,8.04s-2.3,8.27-6.39,8.27h-3.61Z"/>
        <path class="cls-1" d="M306.39,38.97c0-3.38-1.9-5.34-5.23-5.34h-6.93v21.37h7.02c3.5,0,5.88-2.5,5.88-6.2,0-2.44-1.02-4.32-2.9-5.12,1.45-.97,2.16-2.61,2.16-4.72ZM305.02,48.8c0,2.27-1.48,3.64-3.92,3.64h-4.83v-7.45h4.6c2.56,0,4.15,1.45,4.15,3.81ZM300.56,42.52h-4.29v-6.37h4.8c2.07,0,3.3,1.08,3.3,2.96,0,2.1-1.51,3.41-3.81,3.41Z"/>
        <path class="cls-1" d="M311.59,45.79h4.52c3.1,0,2.78,6.02,4.12,9.21h2.33c-1.93-4.66-1.19-8.3-3.35-9.89,1.9-.97,2.93-2.93,2.93-5.34,0-3.55-2.19-6.14-5.48-6.14h-7.1v21.37h2.05v-9.21ZM311.59,36.15h5c2.1,0,3.44,1.39,3.44,3.5s-1.39,3.61-3.44,3.61h-5v-7.1Z"/>
        <path class="cls-1" d="M344.31,55l1.88-6.17h7.53l1.9,6.17h2.19l-6.62-21.37h-2.41l-6.68,21.37h2.22ZM349.99,36.72l2.93,9.61h-5.91l2.98-9.61Z"/>
        <polygon class="cls-1" points="221.29 642.78 223.34 642.78 223.34 633.06 231.98 633.06 231.98 630.53 223.34 630.53 223.34 623.93 233.09 623.93 233.09 621.41 221.29 621.41 221.29 642.78"/>
        <path class="cls-1" d="M222.32,659.04v2.39c1.53.09,3.75-.62,4.83-2.05v16.4h1.99v-21.17h-1.73c-.28,2.05-1.99,4.41-5.09,4.43Z"/>
        <polygon class="cls-1" points="246.94 623.93 246.94 621.41 235 621.41 235 642.78 247.14 642.78 247.14 640.22 237.05 640.22 237.05 633.06 246.17 633.06 246.17 630.53 237.05 630.53 237.05 623.93 246.94 623.93"/>
        <path class="cls-1" d="M196.95,620.89c-5.09,0-8.41,4.94-8.41,11.28s3.52,11.14,8.41,11.14,8.35-4.72,8.35-11.14-3.27-11.28-8.35-11.28ZM196.95,640.79c-3.55,0-6.17-3.58-6.17-8.64s2.42-8.7,6.17-8.7,6.17,3.75,6.17,8.7-2.61,8.64-6.17,8.64Z"/>
        <path class="cls-1" d="M178.82,640.73c-3.61,0-6.19-3.5-6.19-8.47s2.67-8.75,6.42-8.75c2.42,0,4.35,1.51,5.4,4.09l2.16-.6c-1.33-3.84-4.09-6.11-7.5-6.11-4.97,0-8.7,4.92-8.7,11.48s3.52,10.94,8.44,10.94c3.75,0,6.54-2.59,7.84-7.05l-2.05-.57c-1,3.13-3.13,5.03-5.83,5.03Z"/>
        <polygon class="cls-1" points="218.27 630.53 209.63 630.53 209.63 623.93 219.38 623.93 219.38 621.41 207.58 621.41 207.58 642.78 209.63 642.78 209.63 633.06 218.27 633.06 218.27 630.53"/>
        <path class="cls-1" d="M243.52,654.41l-6.68,21.37h2.22l1.88-6.17h7.53l1.9,6.17h2.19l-6.62-21.37h-2.42ZM241.76,667.11l2.98-9.61,2.93,9.61h-5.91Z"/>
        <path class="cls-1" d="M212.88,659.04v2.39c1.54.09,3.75-.62,4.83-2.05v16.4h1.99v-21.17h-1.73c-.28,2.05-1.99,4.41-5.09,4.43Z"/>
        <polygon class="cls-1" points="282.25 621.41 268.47 621.41 268.47 623.93 274.33 623.93 274.33 642.78 276.37 642.78 276.37 623.93 282.25 623.93 282.25 621.41"/>
        <polygon class="cls-1" points="261.43 623.93 261.43 621.41 249.49 621.41 249.49 642.78 261.62 642.78 261.62 640.22 251.54 640.22 251.54 633.06 260.66 633.06 260.66 630.53 251.54 630.53 251.54 623.93 261.43 623.93"/>
        <polygon class="cls-1" points="403.18 671.29 394.14 654.41 391.95 654.41 391.95 675.78 394 675.78 394 658.81 403.07 675.78 405.23 675.78 405.23 654.41 403.18 654.41 403.18 671.29"/>
        <path class="cls-1" d="M421.22,666.94h4.8c-.11,3.95-2.33,6.82-5.28,6.82s-5.57-3.1-5.57-8.41c0-5,2.13-8.87,5.83-8.87,2.16,0,3.98,1.34,4.89,4.15l2.02-.57c-1.11-3.81-3.52-6.17-6.9-6.17-5.03,0-7.96,5.2-7.96,11.45s3.1,10.97,7.56,10.97c2.36,0,4.35-1.28,5.46-3.32l.2,2.78h1.82v-11.37h-6.85v2.53Z"/>
        <polygon class="cls-1" points="419.93 642.78 421.98 642.78 421.98 621.41 419.93 621.41 419.93 630.61 410.61 630.61 410.61 621.41 408.56 621.41 408.56 642.78 410.61 642.78 410.61 633.11 419.93 633.11 419.93 642.78"/>
        <rect class="cls-1" x="408.36" y="654.41" width="2.1" height="21.37"/>
        <rect class="cls-1" x="370.18" y="654.41" width="2.1" height="21.37"/>
        <path class="cls-1" d="M381.44,654.41h-6.02v21.37h6.02c5.31,0,8.13-4.43,8.13-10.8s-2.81-10.57-8.13-10.57ZM381.07,673.25h-3.61v-16.31h3.61c4.09,0,6.4,2.5,6.4,8.04s-2.3,8.27-6.4,8.27Z"/>
        <polygon class="cls-1" points="381.05 633.06 390.18 633.06 390.18 630.53 381.05 630.53 381.05 623.93 390.94 623.93 390.94 621.41 379.01 621.41 379.01 642.78 391.14 642.78 391.14 640.22 381.05 640.22 381.05 633.06"/>
        <path class="cls-1" d="M373.27,632.89c1.9-.97,2.93-2.93,2.93-5.34,0-3.55-2.19-6.14-5.48-6.14h-7.1v21.37h2.05v-9.21h4.52c3.1,0,2.78,6.02,4.12,9.21h2.33c-1.93-4.66-1.19-8.3-3.35-9.89ZM370.65,631.04h-5v-7.1h5c2.1,0,3.44,1.39,3.44,3.49s-1.39,3.61-3.44,3.61Z"/>
        <polygon class="cls-1" points="473.5 623.93 479.36 623.93 479.36 642.78 481.4 642.78 481.4 623.93 487.29 623.93 487.29 621.41 473.5 621.41 473.5 623.93"/>
        <polygon class="cls-1" points="469.8 638.29 460.76 621.41 458.57 621.41 458.57 642.78 460.62 642.78 460.62 625.81 469.68 642.78 471.84 642.78 471.84 621.41 469.8 621.41 469.8 638.29"/>
        <path class="cls-1" d="M495.61,630.47c-3.21-1.25-4.4-2.42-4.4-4.12,0-1.85,1.39-2.93,3.61-2.93,2.42,0,3.75,1.28,4.23,3.84l2.1-.57c-.71-3.81-2.79-5.8-6.28-5.8s-5.8,2.1-5.8,5.48c0,2.96,1.71,5.06,5.68,6.48,3.27,1.19,4.6,2.47,4.6,4.32,0,2.1-1.71,3.58-4.21,3.58s-4.09-1.56-4.52-4.6l-2.05.51c.57,4.32,2.93,6.65,6.68,6.65s6.22-2.42,6.22-6.14c0-2.98-1.59-5.09-5.88-6.71Z"/>
        <polygon class="cls-1" points="445.93 656.93 451.79 656.93 451.79 675.78 453.83 675.78 453.83 656.93 459.71 656.93 459.71 654.41 445.93 654.41 445.93 656.93"/>
        <polygon class="cls-1" points="442.2 663.61 432.88 663.61 432.88 654.41 430.83 654.41 430.83 675.78 432.88 675.78 432.88 666.11 442.2 666.11 442.2 675.78 444.25 675.78 444.25 654.41 442.2 654.41 442.2 663.61"/>
        <polygon class="cls-1" points="456.02 623.93 456.02 621.41 444.09 621.41 444.09 642.78 456.22 642.78 456.22 640.22 446.13 640.22 446.13 633.06 455.25 633.06 455.25 630.53 446.13 630.53 446.13 623.93 456.02 623.93"/>
        <polygon class="cls-1" points="441.22 642.78 441.22 621.41 438.64 621.41 433.09 639.14 427.47 621.41 424.85 621.41 424.85 642.78 426.9 642.78 426.9 626.35 432.13 642.78 434.06 642.78 439.18 626.35 439.18 642.78 441.22 642.78"/>
        <path class="cls-1" d="M400.17,630.47c-3.21-1.25-4.41-2.42-4.41-4.12,0-1.85,1.39-2.93,3.61-2.93,2.42,0,3.75,1.28,4.23,3.84l2.1-.57c-.71-3.81-2.79-5.8-6.28-5.8s-5.8,2.1-5.8,5.48c0,2.96,1.71,5.06,5.68,6.48,3.27,1.19,4.6,2.47,4.6,4.32,0,2.1-1.71,3.58-4.21,3.58s-4.09-1.56-4.52-4.6l-2.05.51c.57,4.32,2.93,6.65,6.68,6.65s6.22-2.42,6.22-6.14c0-2.98-1.59-5.09-5.88-6.71Z"/>
        <path class="cls-1" d="M312.77,642.78l-6.62-21.37h-2.41l-6.68,21.37h2.22l1.88-6.17h7.53l1.9,6.17h2.19ZM301.97,634.11l2.98-9.61,2.93,9.61h-5.91Z"/>
        <polygon class="cls-1" points="310.11 656.93 315.97 656.93 315.97 675.78 318.01 675.78 318.01 656.93 323.9 656.93 323.9 654.41 310.11 654.41 310.11 656.93"/>
        <rect class="cls-1" x="325.83" y="654.41" width="2.1" height="21.37"/>
        <path class="cls-1" d="M329.67,632.89c1.9-.97,2.93-2.93,2.93-5.34,0-3.55-2.19-6.14-5.48-6.14h-7.1v21.37h2.05v-9.21h4.52c3.1,0,2.79,6.02,4.12,9.21h2.33c-1.93-4.66-1.19-8.3-3.35-9.89ZM327.05,631.04h-5v-7.1h5c2.1,0,3.44,1.39,3.44,3.49s-1.39,3.61-3.44,3.61Z"/>
        <path class="cls-1" d="M290.29,667.73c0,3.98-1.68,6.02-4.66,6.02s-4.52-2.07-4.52-6.05v-13.3h-2.08v13.3c0,5.63,2.47,8.61,6.59,8.61s6.71-3.04,6.71-8.58v-13.33h-2.05v13.33Z"/>
        <polygon class="cls-1" points="306.41 671.29 297.37 654.41 295.18 654.41 295.18 675.78 297.23 675.78 297.23 658.81 306.29 675.78 308.45 675.78 308.45 654.41 306.41 654.41 306.41 671.29"/>
        <polygon class="cls-1" points="295.84 623.93 295.84 621.41 283.9 621.41 283.9 642.78 296.04 642.78 296.04 640.22 285.95 640.22 285.95 633.06 295.07 633.06 295.07 630.53 285.95 630.53 285.95 623.93 295.84 623.93"/>
        <polygon class="cls-1" points="333.14 654.41 331.07 654.41 331.07 675.78 343 675.78 343 673.22 333.14 673.22 333.14 654.41"/>
        <polygon class="cls-1" points="337.46 633.06 346.58 633.06 346.58 630.53 337.46 630.53 337.46 623.93 347.35 623.93 347.35 621.41 335.41 621.41 335.41 642.78 347.54 642.78 347.54 640.22 337.46 640.22 337.46 633.06"/>
        <polygon class="cls-1" points="361.69 623.93 361.69 621.41 349.9 621.41 349.9 642.78 351.94 642.78 351.94 633.06 360.58 633.06 360.58 630.53 351.94 630.53 351.94 623.93 361.69 623.93"/>
        <polygon class="cls-1" points="262.35 672.14 256.73 654.41 254.11 654.41 254.11 675.78 256.16 675.78 256.16 659.35 261.39 675.78 263.32 675.78 268.43 659.35 268.43 675.78 270.48 675.78 270.48 654.41 267.89 654.41 262.35 672.14"/>
        <polygon class="cls-1" points="358.9 672.14 353.27 654.41 350.66 654.41 350.66 675.78 352.71 675.78 352.71 659.35 357.93 675.78 359.87 675.78 364.98 659.35 364.98 675.78 367.03 675.78 367.03 654.41 364.44 654.41 358.9 672.14"/>
        <path class="cls-1" d="M574.52,335.62l-56.53-41.48-42.89,56.42,99.42-14.93ZM518.25,295.94l52.96,38.86-93.13,13.99,40.18-52.85Z"/>
        <path class="cls-1" d="M301.72,325.68l53.32,40.09,95.96-119.95.42-.53-60.24-44.21-.53-.39-88.57,124.48-.37.52ZM390.96,202.52l58.61,43.02-94.75,118.43-51.3-38.57,87.44-122.89Z"/>
        <path class="cls-1" d="M458.22,228.88l8.02-4.55h-1.97l-18.62-68.67-49.22,27.87,61.45,45.1.34.25ZM444.84,157.63l18.18,67.05-4.7,2.66-59.49-43.66,46.01-26.05Z"/>
        <path class="cls-1" d="M435.02,447.47l-29.41,4.52,10.95,70.34.1.64,98.37-15.35-79.83-60.02-.17-.13ZM417.74,521.49l-10.65-68.42,27.53-4.28,77.17,58.01-94.04,14.68Z"/>
        <path class="cls-1" d="M253.57,311.06l-123.14,21.46-.64.11,11.94,67.96,192.5-28.9-80.66-60.64ZM131.29,333.7l121.95-21.26,77.73,58.44-188.18,28.25-11.5-65.43Z"/>
        <path class="cls-1" d="M390.61,414.08l-36.56-27.48v-.44l-208.68,31.34-.66.1,11.24,63.96,239.38-37.09-4.73-30.39ZM146.22,418.68l206.99-31.09,36.19,27.2,4.45,28.58-236.83,36.7-10.79-61.4Z"/>
        <path class="cls-1" d="M396.71,453.36l-239.21,37.07,12.48,71.03,237.14-37,.64-.1-10.95-70.35-.1-.64ZM171.04,559.98l-12.03-68.47,236.61-36.66,10.65,68.42-235.24,36.71Z"/>
        <path class="cls-1" d="M472.22,453.86l67.12-94.41.89-1.25-162.73,24.44,94.2,70.82.53.4ZM537.39,359.95l-65.46,92.08-91.19-68.55,156.64-23.52Z"/>
        <path class="cls-1" d="M118.4,209.45l-1.48,49.98,11.19,63.69.11.64,115.47-20.13-125.3-94.19ZM118.22,259.34l1.4-47.34,120.89,90.88-111.23,19.39-11.06-62.92Z"/>
        <path class="cls-1" d="M479.8,458.76l-.37.52,51.67,38.85,97.66-121.85.42-.53-34.94-25.64-41.65,6.25-72.8,102.41ZM593.91,351.46l33.41,24.52-96.45,120.34-49.65-37.33,72.12-101.44,40.57-6.09Z"/>
        <path class="cls-1" d="M458.7,250.62l-92.06,115.07-.35.46.64.64,95.4-14.33,48.4-63.66-51.53-37.81-.5-.37ZM461.61,351.26l-92.93,13.96,90.26-112.81,49.96,36.66-47.28,62.19Z"/>
        <path class="cls-1" d="M423.12,440.16l.83.63v-2.07l-.49.08-22.54-16.95,3.3,21.25,18.89-2.93ZM421.67,439.07l-16.36,2.54-2.61-16.8,18.97,14.26Z"/>
        <path class="cls-1" d="M241.48,280.38l53.05,39.88,88.48-124.35.47-.52-46.13-33.85-.5-.37-94.95,118.67-.42.52ZM337.08,162.97l44.53,32.67-87.37,122.78-50.92-38.28,93.75-117.18Z"/>
        <path class="cls-1" d="M329.14,156.39l.43-.54-.71-.5-.44-1.01-51.62-38.99-95.29,119.11-.42.52,53.19,39.98,94.87-118.59ZM182.94,234.75l94.08-117.6,50.34,38.02.2.45-.22.24.36.25-93.65,117.06-51.11-38.42Z"/>
        <path class="cls-1" d="M658.68,95.19H11.7c-3.57,0-6.76,1.61-8.91,4.13-.28.33-.55.67-.79,1.03-1.26,1.87-2,4.12-2,6.53v462.8c0,6.45,5.25,11.7,11.7,11.7h646.98c6.45,0,11.7-5.25,11.7-11.7V106.89c0-6.45-5.25-11.7-11.7-11.7ZM616.87,96.49l31.22,23.42-174.63,98.86-18.18-67.04,97.58-55.24h64.01ZM529.28,96.49l-77.15,43.68-11.85-43.68h89ZM428.26,96.49l13.44,49.57-53.14,30.08-44.69-32.79-20.22-46.86h104.6ZM302.04,96.49l16,37.09-49.1-37.09h33.1ZM249.67,96.49l18.1,13.67-94.11,117.63-47.84-35.97,78.19-95.33h45.66ZM189,96.49l-72.46,88.35-54.38-40.87,37.99-47.48h88.85ZM11.7,96.49h73.57l-32.39,40.49L3.83,100.11c1.91-2.21,4.72-3.62,7.87-3.62ZM1.3,123.05l61.44,46.19L1.3,179.58v-56.53ZM1.3,191.35l74.23-12.5,32.74,24.61-1.66,56.16v.58l24.7,140.66L1.3,420.39v-229.04ZM1.3,440.45l133.44-20.04,10.79,61.44L1.3,504.21v-63.76ZM11.7,580.09c-5.73,0-10.4-4.66-10.4-10.4v-53.74l146.24-22.66,12.03,68.48-117.35,18.31H11.7ZM117.49,580.09l44.1-6.88,1.21,6.88h-45.31ZM174.58,580.09l-1.52-8.67,235.01-36.67,7.06,45.34h-240.54ZM426.87,580.09l-7.34-47.14,105.2-16.42,78.32,58.88-29.9,4.68h-146.27ZM669.07,569.69c0,5.73-4.66,10.4-10.4,10.4h-7.2l17.6-21.92v11.52ZM669.07,539.64l-30.34,37.77-39.9-29.99,70.23-87.52v79.74ZM669.07,441.36l-79.51,99.09-49.41-37.14,96.53-120.45,32.38,23.77v34.73ZM669.07,382l-17.91-13.15,17.91-15.65v28.79ZM669.07,320.11l-70.02,10.51-68.99-50.63,139.01-78.7v118.81ZM669.07,187.98l-149.26,84.5-39.7-29.13-3.53-13,181.64-102.82,10.86,8.14v52.31ZM669.07,134.04l-10.76-8.07-182.82,103.48-.44.25,3.9,14.35.12.12,40.3,29.59.34.25,149.35-84.55v10.33l-140.53,79.55-.87.5,71.04,52.14,70.36-10.56v17.44l-49.02,7.36h-1.95l23.53,17.26,27.44-23.96v11.96l-19.99,17.46,19.99,14.67v21.4l-32.62-23.94-97.73,121.94-.42.52,51.49,38.71,79.28-98.81v14.39l-72.08,89.83,41.97,31.55,30.11-37.49v14.38l-19.27,23.99h-68.25l23.21-3.63,1.52-.24-81.22-61.06-106.38,16.6-.55.1v.56l7.42,47.67h-9.12l-7.19-46.19-.65.05-.09-.59-236.3,36.88-.65.1,1.71,9.75h-9.14l-1.47-8.36-53.59,8.36h-58.4l109.77-17.13.65-.1-12.48-71.04L1.3,514.64v-9.12l145.75-22.59-11.13-63.38-.11-.62L1.3,439.14v-17.43l130.85-19.65.66-.1-24.91-141.86v-.45s1.68-56.81,1.68-56.81l-33.72-25.35L1.3,190.04v-9.14l64.64-10.88L1.3,121.42v-14.53c0-2.12.64-4.1,1.74-5.75l50.06,37.64,33.83-42.29h11.54l-37.75,47.19-.14.19v.55l56.16,42.21,73.93-90.14h11.65l-77.95,95.03-.43.52,49.42,37.16.18.13h.53l95.11-118.88.42-.52-17.79-13.44h14.95l54.4,41.09-17.73-41.09h18.78l20.51,47.54.07.16,45.31,33.25.34.25,54.31-30.74.44-.25-13.62-50.21h9.34l12.38,45.63,80.6-45.63h18.29l-96.02,54.35-.44.25,18.88,69.63,176.8-100.09h1.79l-32.2-24.15h15l35.04,26.28v11.27ZM665.78,340.67l-24.21,21.15-19.82-14.54,44.03-6.61ZM636.2,96.49h22.48c5.73,0,10.4,4.66,10.4,10.4v14.26l-32.88-24.66Z"/>
      </g>
      <g>
        <path class="cls-2" d="M229.17,246.44c4.61,0,8.39,3.86,8.39,8.69s-2.49,9.14-6.89,13.28c-2.07,1.94-4.53,3.82-6.48,5.21-.97.7-1.82,1.27-2.42,1.67-.25.16-.45.3-.61.4-.16-.1-.37-.24-.63-.41-.61-.4-1.48-.98-2.46-1.68-1.98-1.4-4.43-3.27-6.4-5.18-3.95-3.83-6.9-8.4-6.9-13.29s3.77-8.69,8.39-8.69c3.22,0,6.01,1.88,7.42,4.66l.58,1.14.58-1.14c1.41-2.77,4.2-4.66,7.42-4.66Z"/>
        <path class="cls-1" d="M221.16,276.46l-.35-.22c-.16-.1-.38-.24-.64-.41-.62-.41-1.49-.99-2.48-1.7-1.81-1.29-4.4-3.24-6.47-5.24-4.71-4.57-7.1-9.2-7.1-13.76,0-5.15,4.05-9.34,9.04-9.34,3.37,0,6.43,1.92,8,5.02h0c1.57-3.09,4.64-5.02,8-5.02,4.98,0,9.04,4.19,9.04,9.34,0,4.84-2.26,9.21-7.1,13.76-2.16,2.03-4.75,3.99-6.54,5.27-.98.7-1.83,1.28-2.43,1.68l-.97.63ZM213.16,247.09c-4.27,0-7.74,3.61-7.74,8.04,0,4.2,2.25,8.51,6.7,12.82,2.01,1.95,4.55,3.86,6.32,5.12.98.7,1.83,1.27,2.44,1.67.1.06.19.12.27.18l.25-.17c.59-.4,1.43-.97,2.4-1.66,1.76-1.26,4.3-3.17,6.41-5.16,4.56-4.29,6.69-8.36,6.69-12.81s-3.47-8.04-7.74-8.04c-2.87,0-5.49,1.65-6.84,4.3l-1.16,2.28-1.16-2.28c-1.35-2.66-3.97-4.3-6.84-4.3Z"/>
      </g>
      <g>
        <rect class="cls-3" x="270.52" y="343.62" width="46.66" height="19.76" rx="9.88" ry="9.88"/>
        <g>
          <path class="cls-1" d="M307.3,364.03h-26.91c-5.8,0-10.53-4.72-10.53-10.53s4.72-10.53,10.53-10.53h26.91c5.8,0,10.53,4.72,10.53,10.53s-4.72,10.53-10.53,10.53ZM280.4,344.27c-5.09,0-9.23,4.14-9.23,9.23s4.14,9.23,9.23,9.23h26.91c5.09,0,9.23-4.14,9.23-9.23s-4.14-9.23-9.23-9.23h-26.91Z"/>
          <path class="cls-1" d="M278.51,358.23c-1.59,0-2.74-.9-2.94-2.63l1.43-.16c.13.93.72,1.35,1.52,1.35.9,0,1.57-.54,1.57-1.67v-6.15h1.44v6.14c0,2.01-1.23,3.12-3.03,3.12ZM283.87,359.05l-1.19-.26,3.78-10.45,1.17.26-3.76,10.45ZM288.65,358v-9.03h1.55l2.8,7.02,2.75-7.02h1.55v9.03h-1.44v-5.56l-2.17,5.56h-1.37l-2.22-5.57v5.57h-1.44ZM299.63,359.05l-1.19-.26,3.78-10.45,1.16.26-3.76,10.45ZM304.24,358v-.9l4.66-6.7h-4.59v-1.43h6.71v.97l-4.64,6.62h4.64v1.44h-6.78Z"/>
        </g>
      </g>
    </g>
  </g>
</svg>